<svg version="1.1" id="Layer_1" xmlns="http://www.w3.org/2000/svg" xmlns:xlink="http://www.w3.org/1999/xlink" x="0px" y="0px"
	 width="100%" viewBox="0 0 1024 1024" enable-background="new 0 0 1024 1024" xml:space="preserve">
<path fill="none" opacity="1.000000" stroke="#000000" stroke-linecap="round" stroke-linejoin="round" stroke-width="11.000000"
	d="
M660.500000,448.500000 
	C662.725342,450.373413 665.407715,449.994904 668.000000,449.995117 
	C745.166687,450.001129 822.333313,450.000000 899.500000,450.000000 
	C912.159302,450.000000 921.989868,459.773560 921.991272,472.500000 
	C922.005554,604.500000 922.005249,736.500000 921.991455,868.500000 
	C921.990173,880.896667 911.831299,891.000000 899.500000,891.000000 
	C794.833313,891.000000 690.166687,890.987610 585.500061,891.051880 
	C581.869690,891.054077 578.447876,890.346008 575.004395,889.482422 
	C574.141785,889.266113 572.815552,889.045776 572.578430,888.467834 
	C569.475708,880.905518 563.768738,874.815674 563.790771,865.499512 
	C564.099243,735.166931 564.038025,604.833252 563.880310,474.500153 
	C563.872925,468.398682 565.025818,461.854675 568.009766,457.882996 
	C571.338196,453.452820 577.357910,449.789368 584.501526,449.886261 
	C607.164062,450.193756 629.833374,449.975677 652.499939,450.032593 
	C655.149963,450.039246 657.643494,449.717377 660.000000,448.500000 
"/>
<path fill="none" opacity="1.000000" stroke="#000000" stroke-linecap="round" stroke-linejoin="round" stroke-width="11.000000"
	d="
M660.000000,448.000000 
	C659.887512,438.666656 660.595947,429.366119 660.191345,419.991730 
	C659.680603,408.157776 650.183899,398.823242 639.992981,396.025452 
	C637.072205,395.223541 634.076782,394.954498 631.000000,394.955444 
	C466.666656,395.005859 302.333313,395.034698 138.000046,394.932739 
	C125.155899,394.924774 113.398827,403.715973 110.350235,413.453094 
	C109.605026,415.833252 109.005379,418.064423 109.003159,420.500000 
	C108.995132,429.333344 108.594429,438.189941 109.099983,446.994263 
	C109.771248,458.684204 108.657394,470.328064 108.938423,482.001495 
	C109.219124,493.661377 109.000000,505.333344 109.000000,517.000000 
	C109.000000,528.500000 109.000000,540.000000 109.000000,551.500000 
	C109.000000,563.166687 109.000000,574.833313 109.000000,586.500000 
	C109.000000,598.166687 109.000000,609.833313 109.000000,621.500000 
	C109.000000,633.166687 109.000000,644.833313 109.000000,656.500000 
	C109.000000,668.000000 109.000000,679.500000 109.000000,691.000000 
	C109.000000,702.666687 109.000000,714.333313 109.000000,726.000000 
	C109.000000,737.666687 109.000000,749.333313 109.000000,761.000000 
	C109.000000,772.666687 109.000000,784.333313 109.000000,796.000000 
	C109.000000,807.500000 109.000000,819.000000 109.000000,830.500000 
	C109.000000,842.166687 108.999992,853.833313 109.000000,865.500000 
	C109.000000,880.302002 119.698036,891.000000 134.500000,891.000000 
	C277.166656,891.000000 419.833344,890.992126 562.500000,891.047913 
	C565.887573,891.049255 569.042664,890.660950 572.000000,889.000000 
"/>
<path fill="none" opacity="1.000000" stroke="#000000" stroke-linecap="round" stroke-linejoin="round" stroke-width="11.000000"
	d="
M567.000000,457.000000 
	C564.273621,455.757690 561.565369,454.877045 558.477234,455.933380 
	C557.283569,456.341675 555.833313,456.000000 554.500000,456.000000 
	C406.666656,456.000000 258.833344,456.000000 111.000000,456.000000 
"/>
<path fill="none" opacity="1.000000" stroke="#000000" stroke-linecap="round" stroke-linejoin="round" stroke-width="18.000000"
	d="
M292.000000,183.000000 
	C272.993652,183.000000 259.069397,197.206024 258.977814,216.499893 
	C258.905884,231.651413 264.735138,243.423813 279.054413,249.368912 
	C291.108002,254.373352 303.287750,253.856476 313.951172,245.438171 
	C325.109924,236.628845 328.495941,225.023560 326.140900,210.976379 
	C323.675995,196.274017 315.257812,187.683685 301.499359,183.502060 
	C298.709595,182.654175 295.836975,183.104767 293.000000,183.000000 
"/>
<path fill="none" opacity="1.000000" stroke="#000000" stroke-linecap="round" stroke-linejoin="round" stroke-width="17.000000"
	d="
M596.000000,183.000000 
	C578.267822,181.585648 561.671692,196.670013 561.903381,217.501068 
	C562.095093,234.742340 570.773865,247.716064 587.043274,251.303894 
	C608.653870,256.069611 626.944092,244.665329 629.006348,221.500565 
	C630.754211,201.867828 620.387573,188.179123 603.982422,183.562485 
	C601.776855,182.941803 599.333313,183.166656 597.000000,183.000000 
"/>
<path fill="none" opacity="1.000000" stroke="#000000" stroke-linecap="round" stroke-linejoin="round" stroke-width="18.000000"
	d="
M191.000000,223.500000 
	C198.333328,223.500000 205.682663,223.810303 212.996567,223.433350 
	C226.851349,222.719299 236.460846,212.529022 232.569885,197.981308 
	C230.678513,190.909805 225.905624,187.054169 219.477066,185.074478 
	C211.146591,182.509125 202.549377,183.296661 193.997375,183.966568 
	C190.114685,184.270721 188.382416,186.508667 188.557114,189.997147 
	C189.099533,200.829132 187.022537,211.763885 189.952316,222.513000 
	C190.793686,225.599899 188.301102,228.312012 188.426559,231.502884 
	C188.675186,237.826447 188.500000,244.166672 188.500000,250.500000 
"/>
<path fill="none" opacity="1.000000" stroke="#000000" stroke-linecap="round" stroke-linejoin="round" stroke-width="12.000000"
	d="
M641.500000,87.000000 
	C638.833313,86.833328 636.167969,86.558586 633.499695,86.527672 
	C630.246338,86.489967 628.518127,88.245132 628.510742,91.500023 
	C628.483582,103.499962 628.470093,115.500153 628.530640,127.499847 
	C628.540344,129.413147 629.159607,131.273056 631.501709,131.480545 
	C639.930237,132.227203 648.372681,133.373169 656.032593,128.046921 
	C659.878418,125.372787 662.045105,121.622482 663.437500,117.478996 
	C667.359192,105.808311 661.880005,92.558983 651.496460,88.008080 
	C648.452515,86.673988 645.198669,87.029335 642.000000,87.000000 
"/>
<path fill="none" opacity="1.000000" stroke="#000000" stroke-linecap="round" stroke-linejoin="round" stroke-width="19.000000"
	d="
M384.500000,224.500000 
	C387.166656,222.833328 389.733002,220.971863 392.518982,219.536850 
	C400.621094,215.363541 403.080383,208.438217 401.938843,200.008286 
	C400.872864,192.136475 395.774841,187.353485 388.482697,185.054901 
	C380.138153,182.424576 371.539978,183.326813 362.999847,183.998230 
	C358.322906,184.365936 356.675781,187.134598 356.998596,191.500107 
	C357.737183,201.488068 357.612793,211.577866 357.849670,221.515503 
	C358.071472,230.821152 357.530365,240.501602 357.000000,250.000000 
"/>
<path fill="none" opacity="1.000000" stroke="#000000" stroke-linecap="round" stroke-linejoin="round" stroke-width="19.000000"
	d="
M658.000000,185.000000 
	C658.000000,206.255234 658.000000,227.510452 658.000000,248.200516 
	C662.914795,250.899384 667.148621,251.103180 671.500549,251.034790 
	C679.331909,250.911682 687.166687,251.000000 695.000000,251.000000 
"/>
<path fill="none" opacity="1.000000" stroke="#000000" stroke-linecap="round" stroke-linejoin="round" stroke-width="12.000000"
	d="
M335.000000,112.500000 
	C340.342407,112.903313 345.864655,111.388077 351.470520,114.178696 
	C354.787567,110.449875 360.845703,109.817429 362.636780,103.539024 
	C364.798126,95.962761 360.278381,87.870949 352.498657,87.012093 
	C348.839813,86.608170 345.169098,86.302917 341.499420,86.007072 
	C335.888489,85.554733 333.358521,87.750694 333.558441,93.497971 
	C333.772980,99.666061 333.970032,105.899521 334.078674,112.007492 
	C334.192413,118.400215 333.776093,124.997063 333.500000,131.500000 
"/>
<path fill="none" opacity="1.000000" stroke="#000000" stroke-linecap="round" stroke-linejoin="round" stroke-width="18.000000"
	d="
M539.500000,183.500000 
	C530.500000,183.500000 521.495728,183.327560 512.501221,183.548889 
	C503.647339,183.766754 502.170898,184.971329 502.523163,193.499039 
	C502.860809,201.673508 501.553314,209.901779 503.884430,218.033142 
	C504.763947,221.100998 502.292633,224.138687 502.413361,227.503113 
	C502.688110,235.159927 502.500000,242.833328 502.500000,250.500000 
"/>
<path fill="none" opacity="1.000000" stroke="#000000" stroke-linecap="round" stroke-linejoin="round" stroke-width="18.000000"
	d="
M721.500000,184.500000 
	C721.500000,206.500000 721.500000,228.500000 721.500000,250.500000 
"/>
<path fill="none" opacity="1.000000" stroke="#000000" stroke-linecap="round" stroke-linejoin="round" stroke-width="19.000000"
	d="
M451.000000,187.000000 
	C451.000000,208.000000 451.000000,229.000000 451.000000,250.000000 
"/>
<path fill="none" opacity="1.000000" stroke="#000000" stroke-linecap="round" stroke-linejoin="round" stroke-width="5.000000"
	d="
M676.000000,618.000000 
	C672.160767,618.000000 668.321533,618.000000 664.547974,618.000000 
	C664.059326,621.986938 661.819763,625.388245 664.167358,628.857605 
	C665.318481,628.600037 666.653870,628.272949 668.000977,628.004944 
	C672.763611,627.057678 676.425903,628.799377 677.500000,632.500000 
	C678.519409,636.011963 676.192688,641.182434 673.000000,642.500061 
	C669.896667,643.780762 665.675598,641.736816 663.461304,638.023071 
	C663.066528,637.360962 662.166687,637.000000 661.500000,636.500000 
"/>
<path fill="none" opacity="1.000000" stroke="#000000" stroke-linecap="round" stroke-linejoin="round" stroke-width="13.000000"
	d="
M481.000000,87.000000 
	C481.302124,98.331345 480.240082,109.697197 481.551910,120.993973 
	C482.377258,128.101440 487.953491,132.592316 494.995758,133.063400 
	C501.995941,133.531647 507.881317,131.904587 511.432007,125.462524 
	C512.908997,122.782822 513.021851,119.597816 513.011841,116.499962 
	C512.979919,106.666733 513.000000,96.833336 513.000000,87.000000 
"/>
<path fill="none" opacity="1.000000" stroke="#000000" stroke-linecap="round" stroke-linejoin="round" stroke-width="5.000000"
	d="
M456.500000,316.000000 
	C455.306976,315.886047 454.449097,316.024567 453.356384,314.610992 
	C450.305634,310.664368 445.914948,309.935913 442.500000,312.000000 
	C438.681946,314.307709 436.238525,320.171967 437.500031,324.000000 
	C438.914764,328.293091 443.145813,331.096100 447.500519,331.056915 
	C450.339569,331.031342 452.259338,329.379913 453.346130,327.414886 
	C454.284180,325.718811 455.306976,326.113953 456.500000,326.000000 
"/>
<path fill="none" opacity="1.000000" stroke="#000000" stroke-linecap="round" stroke-linejoin="round" stroke-width="13.000000"
	d="
M410.500000,86.500000 
	C404.333344,86.500000 398.160248,86.325356 392.001862,86.550850 
	C386.244812,86.761627 384.833588,87.543304 384.983276,93.500420 
	C385.117676,98.849152 385.842224,104.283539 385.641724,109.486191 
	C385.443909,114.618973 385.270020,119.830261 385.030914,125.001427 
	C384.950287,126.745644 385.229126,128.506485 385.359039,130.494202 
	C394.159424,133.467010 403.169220,131.378067 412.000000,132.000000 
"/>
<path fill="none" opacity="1.000000" stroke="#000000" stroke-linecap="round" stroke-linejoin="round" stroke-width="5.000000"
	d="
M676.000000,314.500000 
	C674.371033,314.642395 673.608337,313.300690 672.479980,312.529297 
	C668.439148,309.766724 664.069763,310.543640 661.006409,314.504944 
	C657.472534,319.074554 658.165344,324.860565 661.528259,328.473663 
	C664.831238,332.022339 669.028198,331.954865 672.983948,328.481750 
	C674.026794,327.566223 675.034119,326.801880 676.500000,327.000000 
"/>
<path fill="none" opacity="1.000000" stroke="#000000" stroke-linecap="round" stroke-linejoin="round" stroke-width="5.000000"
	d="
M389.000000,327.500000 
	C390.646637,327.540039 391.781158,328.531891 393.022034,329.470856 
	C395.680573,331.482422 398.408020,331.593781 401.536621,330.075439 
	C405.081757,328.355011 406.514282,325.797882 406.527679,322.000092 
	C406.553650,314.635254 403.006165,310.519623 396.997620,310.968140 
	C393.986359,311.192902 392.396301,314.182526 389.500000,314.500000 
"/>
<path fill="none" opacity="1.000000" stroke="#000000" stroke-linecap="round" stroke-linejoin="round" stroke-width="5.000000"
	d="
M183.500000,306.500000 
	C182.000000,305.166656 180.620575,303.655273 178.973129,302.539673 
	C176.159195,300.634155 173.185593,300.350861 169.976135,301.952148 
	C167.356232,303.259308 165.413055,305.685974 165.740509,307.965454 
	C166.180450,311.027924 168.432800,313.597595 171.982315,314.564880 
	C174.408035,315.225922 176.657501,316.522095 179.002121,317.494904 
	C182.608948,318.991394 184.488937,321.823975 183.370712,325.460236 
	C182.303146,328.931702 179.217331,330.729462 175.499313,330.990295 
	C170.793716,331.320404 167.434891,329.111664 165.000000,325.250000 
"/>
<path fill="none" opacity="1.000000" stroke="#000000" stroke-linecap="round" stroke-linejoin="round" stroke-width="5.000000"
	d="
M377.000000,314.500000 
	C375.724304,314.551392 374.930969,313.710266 373.979279,313.028961 
	C369.855988,310.077057 365.405518,310.307983 362.500000,313.500000 
	C359.384796,316.922363 359.123901,324.489227 362.000031,327.999969 
	C364.911621,331.554077 369.692383,332.003632 373.973663,328.962891 
	C375.085571,328.173126 376.034149,327.301880 377.500000,327.500000 
"/>
<path fill="none" opacity="1.000000" stroke="#000000" stroke-linecap="round" stroke-linejoin="round" stroke-width="5.000000"
	d="
M835.500000,327.500000 
	C837.290771,327.251801 838.244324,328.589874 839.535034,329.447266 
	C842.762024,331.590881 846.242798,332.032867 849.480591,329.475433 
	C853.426270,326.358795 854.586975,320.979187 852.499939,316.500031 
	C850.633789,312.494904 846.954285,310.503143 842.994385,310.950226 
	C840.139954,311.272522 838.845398,314.357391 836.000000,314.500000 
"/>
<path fill="none" opacity="1.000000" stroke="#000000" stroke-linecap="round" stroke-linejoin="round" stroke-width="5.000000"
	d="
M717.000000,644.000000 
	C723.189697,640.672852 725.249817,632.432312 721.000000,628.000000 
	C717.680664,624.538086 713.005310,625.473145 711.000000,630.000000 
	C708.418823,635.826843 710.466553,641.039185 716.500000,644.000000 
"/>
<path fill="none" opacity="1.000000" stroke="#000000" stroke-linecap="round" stroke-linejoin="round" stroke-width="13.000000"
	d="
M605.750000,86.500000 
	C605.833313,101.333336 605.916626,116.166664 606.000000,131.000000 
"/>
<path fill="none" opacity="1.000000" stroke="#000000" stroke-linecap="round" stroke-linejoin="round" stroke-width="6.000000"
	d="
M639.500000,631.000000 
	C639.369141,634.787476 639.215515,638.458008 642.963501,641.052734 
	C645.903809,643.088440 649.366638,643.108704 652.500000,640.500000 
	C655.712952,637.825073 656.398315,634.741150 654.500061,631.499939 
	C652.477783,628.046997 648.471313,626.536072 645.007568,628.017700 
	C643.297363,628.749268 641.666687,629.666626 640.000000,630.500000 
"/>
<path fill="none" opacity="1.000000" stroke="#000000" stroke-linecap="round" stroke-linejoin="round" stroke-width="5.000000"
	d="
M336.500000,320.500000 
	C341.787598,319.435059 347.205841,320.460083 352.488312,319.885132 
	C352.632507,314.908478 349.855347,312.250031 345.968689,311.106354 
	C342.110077,309.970917 338.875549,311.809235 336.504181,315.003113 
	C334.619446,317.541473 335.257080,325.627991 337.500000,328.000000 
	C341.018372,331.720856 345.165100,332.178497 349.452881,328.937653 
	C351.036499,327.740692 352.832611,327.331879 354.500000,326.500000 
"/>
<path fill="none" opacity="1.000000" stroke="#000000" stroke-linecap="round" stroke-linejoin="round" stroke-width="10.000000"
	d="
M580.500000,92.500000 
	C574.457703,95.231674 572.832031,101.066093 570.453064,106.479370 
	C567.334900,113.574806 566.168884,121.664726 560.428223,127.428490 
	C559.012024,128.850327 559.887634,130.180252 559.500000,131.500000 
"/>
<path fill="none" opacity="1.000000" stroke="#000000" stroke-linecap="round" stroke-linejoin="round" stroke-width="10.000000"
	d="
M538.500000,92.500000 
	C542.677612,94.394310 544.925964,97.847763 546.533081,101.987160 
	C549.075439,108.535408 551.943726,114.957878 554.447571,121.520020 
	C555.500793,124.280647 557.010254,126.466476 559.500000,128.000000 
"/>
<path fill="none" opacity="1.000000" stroke="#000000" stroke-linecap="round" stroke-linejoin="round" stroke-width="4.000000"
	d="
M614.500000,507.500000 
	C615.232544,510.836639 616.623474,513.508545 620.497314,514.020203 
	C623.687195,514.441589 625.800171,512.717651 627.453308,510.465729 
	C629.209473,508.073456 627.337158,502.250183 624.499939,500.500061 
	C622.234070,499.102356 617.826416,500.340546 616.026855,503.018066 
	C615.202148,504.245178 614.666687,505.666656 614.000000,507.000000 
"/>
<path fill="none" opacity="1.000000" stroke="#000000" stroke-linecap="round" stroke-linejoin="round" stroke-width="12.000000"
	d="
M537.250000,89.000000 
	C538.037354,90.460892 538.603821,92.169884 537.452881,93.457878 
	C534.146179,97.158257 534.493225,101.588982 534.497498,106.000000 
	C534.505859,114.499992 534.500000,123.000000 534.500000,131.500000 
"/>
<path fill="none" opacity="1.000000" stroke="#000000" stroke-linecap="round" stroke-linejoin="round" stroke-width="12.000000"
	d="
M581.750000,89.000000 
	C580.962646,90.460892 580.396179,92.169884 581.547119,93.457878 
	C584.853821,97.158257 584.506775,101.588982 584.502502,106.000000 
	C584.494141,114.499992 584.500000,123.000000 584.500000,131.500000 
"/>
<path fill="none" opacity="1.000000" stroke="#000000" stroke-linecap="round" stroke-linejoin="round" stroke-width="11.000000"
	d="
M463.000000,93.750000 
	C460.352814,92.629181 458.087341,91.219742 455.869049,89.139633 
	C450.104919,83.734589 440.706482,82.913536 433.566284,89.076782 
	C428.866791,93.133209 428.345459,101.165321 436.480896,105.535583 
	C441.570068,108.269424 447.337769,108.991974 452.523773,111.449837 
	C458.878571,114.461632 461.216217,117.552490 460.500031,123.000000 
	C459.791168,128.391586 455.900177,132.351852 450.498169,132.984436 
	C443.571838,133.795502 437.061523,133.283966 431.939301,127.554276 
	C430.503815,125.948578 428.333344,124.999992 426.500000,123.749992 
"/>
<path fill="none" opacity="1.000000" stroke="#000000" stroke-linecap="round" stroke-linejoin="round" stroke-width="3.000000"
	d="
M775.000000,647.500000 
	C773.285706,644.535767 771.034790,643.462402 767.474792,644.404785 
	C764.075317,645.304810 763.125000,647.769287 762.556396,650.511719 
	C761.872070,653.812134 763.949890,655.744995 766.460876,657.554260 
	C769.134583,659.480774 771.450378,658.408203 773.428467,656.905823 
	C774.877930,655.804932 775.810181,654.091614 778.000000,654.500000 
"/>
<path fill="none" opacity="1.000000" stroke="#000000" stroke-linecap="round" stroke-linejoin="round" stroke-width="5.000000"
	d="
M672.000000,505.000000 
	C675.316772,504.389709 678.995056,506.634094 682.030457,503.529785 
	C683.749329,501.771912 684.676697,499.667999 683.889526,497.540894 
	C683.082520,495.360168 681.526001,493.524139 678.491516,493.937744 
	C676.189392,494.251556 673.810242,494.000000 671.426575,494.000000 
	C670.169861,501.440704 672.556641,508.646912 670.000000,515.500000 
"/>
<path fill="none" opacity="1.000000" stroke="#000000" stroke-linecap="round" stroke-linejoin="round" stroke-width="4.000000"
	d="
M716.500000,502.500000 
	C711.440857,498.257996 711.440857,498.257996 706.998413,502.501709 
	C706.871643,505.994507 709.830566,505.996643 711.977051,507.046906 
	C713.454529,507.769806 715.970215,506.996887 716.073792,509.997467 
	C716.139709,511.907867 715.304077,513.075867 713.977966,513.967163 
	C712.114685,515.219421 710.218323,514.528687 708.519104,513.469299 
	C707.739807,512.983398 707.166626,512.166687 706.500000,511.500000 
"/>
<path fill="none" opacity="1.000000" stroke="#000000" stroke-linecap="round" stroke-linejoin="round" stroke-width="3.000000"
	d="
M772.500000,709.500000 
	C770.472290,709.388733 769.982117,706.504028 767.487366,706.925293 
	C765.652954,707.235046 764.056824,707.584473 763.538025,709.510254 
	C763.121521,711.056335 764.232666,711.760559 765.451050,712.573364 
	C766.588623,713.332275 767.734924,713.668518 768.987183,714.042786 
	C771.439880,714.775818 772.256653,717.052429 771.362976,718.934937 
	C770.307983,721.156982 767.981201,721.555237 765.478943,720.552490 
	C763.945129,719.937988 763.411194,717.908752 761.500000,718.000000 
"/>
<path fill="none" opacity="1.000000" stroke="#000000" stroke-linecap="round" stroke-linejoin="round" stroke-width="5.000000"
	d="
M427.500000,320.000000 
	C424.833344,320.166656 422.114807,320.068573 419.515167,320.577545 
	C417.111359,321.048126 414.307007,321.659943 413.577240,324.519714 
	C413.062866,326.535309 413.599915,328.673950 415.513641,329.980011 
	C417.866241,331.585632 420.680725,331.676147 422.927216,330.374390 
	C424.906250,329.227661 428.225861,328.323578 428.297058,325.993805 
	C428.417816,322.040009 429.605103,317.762177 427.445679,314.031433 
	C425.521179,310.706604 419.764771,309.790619 416.510925,312.015991 
	C415.441315,312.747559 414.500000,313.666656 413.500000,314.500000 
"/>
<path fill="none" opacity="1.000000" stroke="#000000" stroke-linecap="round" stroke-linejoin="round" stroke-width="5.000000"
	d="
M242.500000,320.000000 
	C240.000000,320.166687 237.499237,320.322815 235.000198,320.502808 
	C232.146057,320.708374 229.608307,321.790375 228.621521,324.543549 
	C228.170074,325.803162 228.045380,327.559784 229.438782,329.056976 
	C231.654205,331.437408 234.442413,331.432037 236.978714,330.898804 
	C242.514862,329.734802 244.319855,327.187042 243.379471,321.519989 
	C242.878922,318.503601 245.274597,314.853424 241.065094,312.388824 
	C237.372406,310.226807 233.854889,310.407959 228.500000,314.500000 
"/>
<path fill="none" opacity="1.000000" stroke="#000000" stroke-linecap="round" stroke-linejoin="round" stroke-width="3.000000"
	d="
M772.000000,772.500000 
	C768.590027,767.842407 767.799805,767.795898 763.393494,772.104126 
	C764.071045,774.717346 766.288818,775.705017 768.514221,776.457886 
	C771.083435,777.327209 773.055054,778.404968 771.472473,781.485901 
	C770.009705,784.333679 767.778320,783.772400 765.496155,782.506958 
	C764.519226,781.965332 763.500000,781.500000 762.500000,781.000000 
"/>
<path fill="none" opacity="1.000000" stroke="#000000" stroke-linecap="round" stroke-linejoin="round" stroke-width="4.000000"
	d="
M824.500000,503.500000 
	C822.191772,500.424652 819.160156,498.896179 815.535950,500.577484 
	C812.280457,502.087708 811.224976,505.947876 812.499878,509.500031 
	C814.558472,515.235413 818.964600,515.602539 824.500000,510.500000 
"/>
<path fill="none" opacity="1.000000" stroke="#000000" stroke-linecap="round" stroke-linejoin="round" stroke-width="3.000000"
	d="
M841.500000,585.000000 
	C839.466675,583.899963 838.089539,581.297852 834.942932,582.887024 
	C833.612732,583.558838 832.585571,583.833679 832.473877,585.498230 
	C832.366211,587.103088 833.077942,587.977112 834.495911,588.510925 
	C835.682556,588.957764 836.795227,589.639465 838.007996,589.970764 
	C840.476685,590.645142 841.826111,591.789001 840.503052,594.501465 
	C839.176025,597.222046 837.054810,597.763367 834.526855,596.448364 
	C833.529785,595.929810 832.833374,594.833313 832.000000,594.000000 
"/>
<path fill="none" opacity="1.000000" stroke="#000000" stroke-linecap="round" stroke-linejoin="round" stroke-width="6.000000"
	d="
M799.500000,311.500000 
	C799.500000,318.333344 799.663574,325.172119 799.436035,331.997864 
	C799.308167,335.835022 799.098389,339.995300 794.000000,341.000000 
"/>
<path fill="none" opacity="1.000000" stroke="#000000" stroke-linecap="round" stroke-linejoin="round" stroke-width="4.000000"
	d="
M806.500000,497.500000 
	C804.195435,495.042969 801.886353,492.822174 797.990479,493.439880 
	C795.433228,493.845306 794.123718,495.285126 793.534729,497.509186 
	C792.966003,499.656586 794.330994,501.086273 796.024292,501.952484 
	C797.747681,502.834106 799.768250,503.142365 801.473694,504.049438 
	C803.504089,505.129395 806.113525,505.975372 805.964783,508.998260 
	C805.867065,510.984772 805.133545,512.798340 802.995483,513.485901 
	C800.453064,514.303528 797.821106,514.641724 795.536072,512.951233 
	C794.331970,512.060425 793.500000,510.666656 792.500000,509.499969 
"/>
<path fill="none" opacity="1.000000" stroke="#000000" stroke-linecap="round" stroke-linejoin="round" stroke-width="6.000000"
	d="
M220.500000,330.500000 
	C220.500000,327.500000 220.452240,324.499054 220.511642,321.500244 
	C220.592224,317.433624 220.580902,313.431274 215.997665,311.505554 
	C211.607452,309.660919 209.689636,313.468323 207.000000,315.500000 
"/>
<path fill="none" opacity="1.000000" stroke="#000000" stroke-linecap="round" stroke-linejoin="round" stroke-width="6.000000"
	d="
M610.500000,311.500000 
	C610.500000,315.166656 610.485840,318.833405 610.502991,322.500000 
	C610.537598,329.887207 615.034546,332.558411 621.483948,328.971130 
	C622.460205,328.428162 623.337219,327.844971 624.500000,328.000000 
"/>
<path fill="none" opacity="1.000000" stroke="#000000" stroke-linecap="round" stroke-linejoin="round" stroke-width="4.000000"
	d="
M689.500000,506.500000 
	C693.248901,506.308716 697.034119,506.934906 700.998779,505.993164 
	C700.331726,502.232300 698.445190,499.471008 694.505493,499.633545 
	C691.760010,499.746796 688.916504,501.379822 688.610413,504.510803 
	C688.283569,507.853149 687.820374,511.498016 691.967773,513.564697 
	C695.612549,515.380981 698.051025,513.800110 700.500000,511.500000 
"/>
<path fill="none" opacity="1.000000" stroke="#000000" stroke-linecap="round" stroke-linejoin="round" stroke-width="5.000000"
	d="
M779.000000,331.000000 
	C779.000000,327.333344 778.917908,323.664307 779.023438,320.000671 
	C779.126099,316.437744 778.725647,313.104279 774.983643,311.539124 
	C771.775391,310.197235 769.237427,311.764984 766.988464,313.988342 
	C766.569031,314.403137 766.000000,314.666687 765.500000,315.000031 
"/>
<path fill="none" opacity="1.000000" stroke="#000000" stroke-linecap="round" stroke-linejoin="round" stroke-width="4.000000"
	d="
M861.000000,506.000000 
	C864.583313,507.015076 868.166687,506.389526 871.816833,506.308746 
	C870.751221,501.385071 868.622986,499.171722 865.500000,499.500000 
	C861.913269,499.876984 860.017517,502.404755 859.500000,507.500000 
	C859.202698,510.426697 861.862061,513.799805 864.999207,514.503601 
	C866.665344,514.877319 868.203247,514.156921 869.443237,513.406250 
	C870.756409,512.611206 871.603210,511.039764 873.500000,511.500000 
"/>
<path fill="none" opacity="1.000000" stroke="#000000" stroke-linecap="round" stroke-linejoin="round" stroke-width="3.000000"
	d="
M695.000000,619.500000 
	C690.833313,629.000000 686.666687,638.500000 682.500000,648.000000 
"/>
<path fill="none" opacity="1.000000" stroke="#000000" stroke-linecap="round" stroke-linejoin="round" stroke-width="5.000000"
	d="
M740.500000,320.000000 
	C738.000000,320.166687 735.499573,320.327545 733.000122,320.501495 
	C730.026306,320.708405 727.360352,321.913483 726.128723,324.559906 
	C725.366638,326.197296 726.476196,328.082031 727.966858,329.534027 
	C730.594727,332.093689 733.278320,331.115112 735.991394,329.979462 
	C737.503418,329.346527 738.561584,327.680237 740.500000,328.000000 
"/>
<path fill="none" opacity="1.000000" stroke="#000000" stroke-linecap="round" stroke-linejoin="round" stroke-width="11.000000"
	d="
M352.000000,114.500000 
	C355.620605,124.385536 360.500824,133.154572 371.500000,136.500000 
"/>
<path fill="none" opacity="1.000000" stroke="#000000" stroke-linecap="round" stroke-linejoin="round" stroke-width="3.000000"
	d="
M778.500000,655.000000 
	C781.785889,659.164246 784.439453,659.648132 786.510864,656.507202 
	C787.745850,654.634644 787.923950,652.806885 786.489502,651.008362 
	C785.357727,649.589417 783.904663,648.518860 782.009583,649.035217 
	C779.301147,649.773193 777.978088,651.592163 778.500000,654.500000 
"/>
<path fill="none" opacity="1.000000" stroke="#000000" stroke-linecap="round" stroke-linejoin="round" stroke-width="17.000000"
	d="
M476.000000,184.000000 
	C471.000000,184.000000 466.000000,184.003006 461.000000,183.998459 
	C459.104034,183.996750 457.236725,183.983261 455.490936,184.984207 
	C452.523804,186.685440 449.604156,186.402191 446.476440,185.054672 
	C441.335022,182.839539 435.829468,184.400192 430.498535,184.020645 
	C428.674438,183.890762 426.833344,184.000000 425.000000,184.000000 
"/>
<path fill="none" opacity="1.000000" stroke="#000000" stroke-linecap="round" stroke-linejoin="round" stroke-width="17.000000"
	d="
M359.000000,222.000000 
	C364.500000,222.000000 370.000763,221.942535 375.499786,222.015762 
	C381.294128,222.092911 382.949127,223.839294 385.604889,228.945450 
	C389.357605,236.160736 393.012421,243.717239 398.284515,249.751434 
	C401.884552,253.871902 408.063507,255.856110 413.500000,258.000000 
"/>
<path fill="none" opacity="1.000000" stroke="#000000" stroke-linecap="round" stroke-linejoin="round" stroke-width="3.000000"
	d="
M810.500000,775.000000 
	C809.165161,774.336487 807.830322,773.673035 806.291931,772.908386 
	C805.370544,773.678223 804.371643,774.512817 803.440918,775.290527 
	C803.554016,777.112610 804.548523,777.501221 805.930054,778.149109 
	C807.330872,778.806030 810.063782,778.078979 810.018494,781.000305 
	C809.996521,782.417419 809.195679,782.586121 808.044861,783.100342 
	C805.366028,784.297546 804.350403,782.450134 803.010742,780.990112 
	C802.927734,780.899597 803.000000,780.666687 803.000000,780.500000 
"/>
<path fill="none" opacity="1.000000" stroke="#000000" stroke-linecap="round" stroke-linejoin="round" stroke-width="5.000000"
	d="
M717.500000,319.000000 
	C717.520935,313.773743 715.055969,311.144470 710.000000,311.000031 
	C705.347778,310.867126 701.229309,314.365631 700.977966,318.498657 
	C700.750549,322.237793 700.705811,325.785645 703.978882,328.525208 
	C707.472290,331.449127 711.437500,332.043365 714.945923,329.427490 
	C716.392761,328.348694 717.837769,327.541351 719.500000,327.000000 
"/>
<path fill="none" opacity="1.000000" stroke="#000000" stroke-linecap="round" stroke-linejoin="round" stroke-width="5.000000"
	d="
M327.000000,319.500000 
	C326.517181,313.775330 323.990997,311.091187 319.000000,310.999969 
	C313.948730,310.907623 312.295471,313.601715 310.765717,319.438599 
	C309.636200,323.748322 310.709717,326.275848 313.468903,329.031128 
	C315.672729,331.231842 318.452026,331.534271 320.962738,330.861023 
	C323.628571,330.146179 326.000000,328.333344 328.500000,327.000031 
"/>
<path fill="none" opacity="1.000000" stroke="#000000" stroke-linecap="round" stroke-linejoin="round" stroke-width="5.000000"
	d="
M633.499939,498.500000 
	C633.666626,501.333344 633.923035,504.164795 633.982117,507.000366 
	C634.125000,513.860657 635.848633,514.993652 642.507874,512.521240 
	C642.947327,512.358093 643.500000,512.500000 644.000000,512.500000 
"/>
<path fill="none" opacity="1.000000" stroke="#000000" stroke-linecap="round" stroke-linejoin="round" stroke-width="5.000000"
	d="
M657.500000,622.000000 
	C656.333313,621.333313 655.003113,620.847351 654.030334,619.966492 
	C650.969055,617.194763 647.917053,615.626038 643.983032,618.476624 
	C639.484253,621.736511 638.599060,624.382446 640.500000,630.000000 
"/>
<path fill="none" opacity="1.000000" stroke="#000000" stroke-linecap="round" stroke-linejoin="round" stroke-width="5.000000"
	d="
M741.249939,331.000000 
	C741.333313,326.833344 741.541443,322.664154 741.457581,318.500854 
	C741.398376,315.560181 740.482056,312.701935 737.472473,311.573364 
	C734.889771,310.604828 731.925537,310.091705 729.550659,312.061127 
	C727.987610,313.357361 726.293945,314.212128 724.500000,315.000000 
"/>
<path fill="none" opacity="1.000000" stroke="#000000" stroke-linecap="round" stroke-linejoin="round" stroke-width="5.000000"
	d="
M723.499939,498.500000 
	C723.333313,501.666656 723.035400,504.833069 723.028870,508.000061 
	C723.017395,513.597229 725.470520,515.188293 730.496399,512.991699 
	C731.176880,512.694336 731.808838,512.285767 732.406311,511.959747 
	C733.143005,512.853577 733.821472,513.676819 734.500000,514.500000 
"/>
<path fill="none" opacity="1.000000" stroke="#000000" stroke-linecap="round" stroke-linejoin="round" stroke-width="11.000000"
	d="
M387.000000,109.000000 
	C394.333344,109.000000 401.666656,109.000000 409.000000,109.000000 
"/>
<path fill="none" opacity="1.000000" stroke="#000000" stroke-linecap="round" stroke-linejoin="round" stroke-width="5.000000"
	d="
M305.000000,300.000000 
	C300.234100,301.419800 298.722626,304.709503 298.932068,309.502960 
	C299.208282,315.824249 299.020691,322.166779 298.986725,328.499939 
	C298.977203,330.275330 298.870392,331.996887 301.500000,331.500000 
"/>
<path fill="none" opacity="1.000000" stroke="#000000" stroke-linecap="round" stroke-linejoin="round" stroke-width="4.000000"
	d="
M762.500000,514.500000 
	C760.602783,512.573914 761.587280,510.159485 761.572693,507.999512 
	C761.551453,504.861450 761.623474,501.515991 758.443848,500.128784 
	C755.707458,498.935028 753.611023,501.481323 751.500000,503.000000 
"/>
<path fill="none" opacity="1.000000" stroke="#000000" stroke-linecap="round" stroke-linejoin="round" stroke-width="3.000000"
	d="
M811.000000,714.000000 
	C808.948425,711.694336 806.854614,709.863281 803.991638,712.992310 
	C802.247375,714.898621 801.832703,716.978882 803.533936,718.971008 
	C805.898865,721.740173 808.500000,722.023743 811.000000,719.000000 
"/>
<path fill="none" opacity="1.000000" stroke="#000000" stroke-linecap="round" stroke-linejoin="round" stroke-width="6.000000"
	d="
M462.500000,301.500000 
	C462.997955,308.325317 461.415436,315.252106 463.500000,322.000000 
"/>
<path fill="none" opacity="1.000000" stroke="#000000" stroke-linecap="round" stroke-linejoin="round" stroke-width="5.000000"
	d="
M563.000000,341.000000 
	C568.969238,338.737671 571.292725,332.542297 567.988342,327.507660 
	C565.152222,323.186523 564.060730,318.139771 561.973083,313.512146 
	C561.440002,312.330505 561.195557,310.781464 559.500000,310.500000 
"/>
<path fill="none" opacity="1.000000" stroke="#000000" stroke-linecap="round" stroke-linejoin="round" stroke-width="5.000000"
	d="
M272.000000,305.000000 
	C272.000000,311.166656 271.899170,317.335449 272.028687,323.499390 
	C272.155640,329.542206 274.846436,331.214600 280.500000,329.000000 
"/>
<path fill="none" opacity="1.000000" stroke="#000000" stroke-linecap="round" stroke-linejoin="round" stroke-width="7.000000"
	d="
M323.000000,703.500000 
	C323.000000,712.666687 323.000000,721.833313 323.000000,731.000000 
"/>
<path fill="none" opacity="1.000000" stroke="#000000" stroke-linecap="round" stroke-linejoin="round" stroke-width="6.000000"
	d="
M505.500000,300.500000 
	C499.412476,301.573151 498.576324,302.452118 498.517059,308.500153 
	C498.445190,315.832794 498.500000,323.166656 498.500000,330.500000 
"/>
<path fill="none" opacity="1.000000" stroke="#000000" stroke-linecap="round" stroke-linejoin="round" stroke-width="5.000000"
	d="
M578.000000,311.250000 
	C574.461426,316.773682 574.220093,323.783447 570.000000,329.000000 
"/>
<path fill="none" opacity="1.000000" stroke="#000000" stroke-linecap="round" stroke-linejoin="round" stroke-width="5.000000"
	d="
M748.500000,310.500000 
	C751.672119,310.204254 751.667053,312.686523 751.414368,314.488007 
	C750.735229,319.330170 751.021851,324.167816 751.065918,328.999390 
	C751.084900,331.082184 750.371826,331.705170 748.500000,331.500000 
"/>
<path fill="none" opacity="1.000000" stroke="#000000" stroke-linecap="round" stroke-linejoin="round" stroke-width="5.000000"
	d="
M752.000000,314.000000 
	C753.753418,314.173462 754.883728,312.872284 755.942322,311.934845 
	C757.823608,310.268799 760.171082,310.756775 761.379272,311.661255 
	C763.268616,313.075623 765.804260,314.411804 765.141724,318.025970 
	C764.491455,321.573425 765.141052,325.340881 764.945557,328.997101 
	C764.833618,331.092346 765.628174,331.705170 767.500000,331.500000 
"/>
<path fill="none" opacity="1.000000" stroke="#000000" stroke-linecap="round" stroke-linejoin="round" stroke-width="5.000000"
	d="
M539.500000,310.500000 
	C538.621704,310.441772 537.747070,310.401978 537.088684,311.271545 
	C538.633789,317.666656 536.349670,324.333344 537.129761,331.057526 
	C537.829956,331.188232 538.664978,331.344116 539.500000,331.500000 
"/>
<path fill="none" opacity="1.000000" stroke="#000000" stroke-linecap="round" stroke-linejoin="round" stroke-width="3.000000"
	d="
M862.500000,586.500000 
	C858.913696,589.301392 858.170959,593.733582 856.711548,597.580261 
	C856.028198,599.381470 855.192017,600.699280 854.000000,602.000000 
"/>
<path fill="none" opacity="1.000000" stroke="#000000" stroke-linecap="round" stroke-linejoin="round" stroke-width="4.000000"
	d="
M779.500000,505.500000 
	C778.198303,501.292633 775.133606,498.665741 772.500000,499.500000 
	C768.591736,500.738068 765.970154,506.243408 767.500000,510.000000 
	C768.922424,513.492920 772.691467,514.776062 776.533020,513.608704 
	C777.937744,513.181824 778.498779,512.164795 779.500000,511.500000 
"/>
<path fill="none" opacity="1.000000" stroke="#000000" stroke-linecap="round" stroke-linejoin="round" stroke-width="5.000000"
	d="
M192.000000,311.000000 
	C192.000000,317.666656 192.000000,324.333344 192.000000,331.000000 
"/>
<path fill="none" opacity="1.000000" stroke="#000000" stroke-linecap="round" stroke-linejoin="round" stroke-width="6.000000"
	d="
M625.499939,311.500000 
	C625.583313,318.000000 625.666626,324.500000 625.749939,331.000000 
"/>
<path fill="none" opacity="1.000000" stroke="#000000" stroke-linecap="round" stroke-linejoin="round" stroke-width="6.000000"
	d="
M684.500000,310.500000 
	C688.744629,310.460999 687.082214,313.708099 686.896118,315.489136 
	C686.354248,320.674286 686.396484,325.826294 686.750000,331.000000 
"/>
<path fill="none" opacity="1.000000" stroke="#000000" stroke-linecap="round" stroke-linejoin="round" stroke-width="5.000000"
	d="
M635.000000,311.000000 
	C635.000000,317.666656 635.000000,324.333344 635.000000,331.000000 
"/>
<path fill="none" opacity="1.000000" stroke="#000000" stroke-linecap="round" stroke-linejoin="round" stroke-width="5.000000"
	d="
M253.000000,311.000000 
	C253.905380,317.666656 252.513763,324.333344 253.000000,331.000000 
"/>
<path fill="none" opacity="1.000000" stroke="#000000" stroke-linecap="round" stroke-linejoin="round" stroke-width="5.000000"
	d="
M719.500000,320.500000 
	C715.030334,319.514557 710.468018,319.856445 706.017090,320.213074 
	C704.575012,320.328583 703.333313,319.811798 702.000000,320.000000 
"/>
<path fill="none" opacity="1.000000" stroke="#000000" stroke-linecap="round" stroke-linejoin="round" stroke-width="4.000000"
	d="
M791.000000,710.500000 
	C791.166687,712.000000 791.455688,713.498169 791.478516,715.000305 
	C791.570740,721.085693 792.268616,721.646179 798.500000,719.856384 
	C798.500000,716.850830 798.500000,713.675415 798.500000,710.500000 
"/>
<path fill="none" opacity="1.000000" stroke="#000000" stroke-linecap="round" stroke-linejoin="round" stroke-width="4.000000"
	d="
M798.500000,659.500000 
	C798.500000,658.000000 798.501587,656.500000 798.499756,655.000000 
	C798.492249,648.941101 797.729126,648.354431 791.500000,650.143616 
	C791.500000,652.477966 791.500000,654.989014 791.500000,657.500000 
"/>
<path fill="none" opacity="1.000000" stroke="#000000" stroke-linecap="round" stroke-linejoin="round" stroke-width="3.000000"
	d="
M794.000000,769.000000 
	C794.000000,773.166687 793.942932,777.334595 794.034973,781.499207 
	C794.062378,782.736755 793.718323,783.372070 792.500000,783.500000 
"/>
<path fill="none" opacity="1.000000" stroke="#000000" stroke-linecap="round" stroke-linejoin="round" stroke-width="3.000000"
	d="
M799.000000,769.000000 
	C799.000000,773.166687 799.057068,777.334595 798.965027,781.499207 
	C798.937622,782.736755 799.281677,783.372070 800.500000,783.500000 
"/>
<path fill="none" opacity="1.000000" stroke="#000000" stroke-linecap="round" stroke-linejoin="round" stroke-width="5.000000"
	d="
M311.500000,319.500000 
	C317.166656,319.833344 322.833344,320.166687 328.500000,320.500000 
"/>
<path fill="none" opacity="1.000000" stroke="#000000" stroke-linecap="round" stroke-linejoin="round" stroke-width="6.000000"
	d="
M193.000000,314.000000 
	C194.513885,314.310150 195.383560,313.048126 196.475861,312.455505 
	C201.463547,309.749329 206.405502,312.380554 206.473022,318.000336 
	C206.525070,322.332031 206.333344,326.666656 206.250015,331.000000 
"/>
<path fill="none" opacity="1.000000" stroke="#000000" stroke-linecap="round" stroke-linejoin="round" stroke-width="6.000000"
	d="
M834.750000,300.000000 
	C834.294128,308.505280 834.499573,317.002533 834.973022,325.501495 
	C835.074585,327.324554 834.833374,329.166656 834.750000,331.000000 
"/>
<path fill="none" opacity="1.000000" stroke="#000000" stroke-linecap="round" stroke-linejoin="round" stroke-width="5.000000"
	d="
M469.500000,320.500000 
	C471.333344,322.833313 473.292023,325.080872 474.964630,327.524231 
	C476.624603,329.949066 478.510193,331.903412 481.500000,332.500000 
"/>
<path fill="none" opacity="1.000000" stroke="#000000" stroke-linecap="round" stroke-linejoin="round" stroke-width="4.000000"
	d="
M595.500000,492.500000 
	C597.717834,493.025787 599.115234,494.302704 600.061646,496.473114 
	C601.307251,499.329498 602.408264,502.422852 605.500000,504.000000 
"/>
<path fill="none" opacity="1.000000" stroke="#000000" stroke-linecap="round" stroke-linejoin="round" stroke-width="4.000000"
	d="
M823.000000,712.000000 
	C823.166626,713.166687 823.437805,714.329346 823.482544,715.500671 
	C823.722046,721.771423 823.795349,721.836426 830.500000,719.851990 
	C830.500000,716.850830 830.500000,713.675415 830.500000,710.500000 
"/>
<path fill="none" opacity="1.000000" stroke="#000000" stroke-linecap="round" stroke-linejoin="round" stroke-width="4.000000"
	d="
M791.500000,596.500000 
	C791.500000,595.166687 791.506531,593.833252 791.498840,592.500000 
	C791.467163,586.966187 790.358398,586.284851 785.000000,588.500000 
"/>
<path fill="none" opacity="1.000000" stroke="#000000" stroke-linecap="round" stroke-linejoin="round" stroke-width="5.000000"
	d="
M645.500000,498.500000 
	C644.879883,503.833344 644.635437,509.166656 645.500000,514.500000 
"/>
<path fill="none" opacity="1.000000" stroke="#000000" stroke-linecap="round" stroke-linejoin="round" stroke-width="4.000000"
	d="
M865.500000,582.500000 
	C865.500000,587.166687 865.500000,591.833313 865.500000,596.500000 
"/>
<path fill="none" opacity="1.000000" stroke="#000000" stroke-linecap="round" stroke-linejoin="round" stroke-width="6.000000"
	d="
M702.750000,626.000000 
	C701.438477,631.481384 703.135986,637.008362 702.500000,642.500000 
"/>
<path fill="none" opacity="1.000000" stroke="#000000" stroke-linecap="round" stroke-linejoin="round" stroke-width="5.000000"
	d="
M388.000000,301.000000 
	C388.166656,309.333344 388.396301,317.666199 388.458069,326.000305 
	C388.474640,328.235046 389.583984,331.348846 385.500000,331.500000 
"/>
<path fill="none" opacity="1.000000" stroke="#000000" stroke-linecap="round" stroke-linejoin="round" stroke-width="4.000000"
	d="
M830.500000,657.500000 
	C830.500000,656.666687 830.501282,655.833313 830.499878,655.000000 
	C830.489380,648.938110 829.730042,648.354187 823.500000,650.143616 
	C823.500000,653.149170 823.500000,656.324585 823.500000,659.500000 
"/>
<path fill="none" opacity="1.000000" stroke="#000000" stroke-linecap="round" stroke-linejoin="round" stroke-width="6.000000"
	d="
M378.500000,301.500000 
	C378.500000,311.166656 378.500000,320.833344 378.500000,330.500000 
"/>
<path fill="none" opacity="1.000000" stroke="#000000" stroke-linecap="round" stroke-linejoin="round" stroke-width="4.000000"
	d="
M766.500000,583.500000 
	C766.500000,587.833313 766.500000,592.166687 766.500000,596.500000 
"/>
<path fill="none" opacity="1.000000" stroke="#000000" stroke-linecap="round" stroke-linejoin="round" stroke-width="6.000000"
	d="
M677.500000,301.500000 
	C677.500000,311.166656 677.500000,320.833344 677.500000,330.500000 
"/>
<path fill="none" opacity="1.000000" stroke="#000000" stroke-linecap="round" stroke-linejoin="round" stroke-width="5.000000"
	d="
M652.000000,500.000000 
	C652.000000,503.333344 652.026184,506.666931 651.989929,509.999878 
	C651.969177,511.908356 651.923035,513.801880 653.000000,515.500000 
"/>
<path fill="none" opacity="1.000000" stroke="#000000" stroke-linecap="round" stroke-linejoin="round" stroke-width="6.000000"
	d="
M479.500000,310.000000 
	C475.679626,310.601685 473.155609,313.293335 471.109863,316.080627 
	C469.258148,318.603516 467.427887,320.623932 464.558899,322.113464 
	C460.777679,324.076660 462.889618,327.913727 462.750000,331.000000 
"/>
<path fill="none" opacity="1.000000" stroke="#000000" stroke-linecap="round" stroke-linejoin="round" stroke-width="4.000000"
	d="
M741.500000,498.500000 
	C741.071350,503.833344 739.132141,509.166656 741.500000,514.500000 
"/>
<path fill="none" opacity="1.000000" stroke="#000000" stroke-linecap="round" stroke-linejoin="round" stroke-width="3.000000"
	d="
M812.000000,652.500000 
	C810.972351,654.000000 810.210205,655.530273 812.007690,656.990540 
	C813.474243,658.181885 815.013306,659.139404 817.009460,658.016785 
	C817.785034,657.580688 818.666687,657.333374 819.500000,657.000061 
"/>
<path fill="none" opacity="1.000000" stroke="#000000" stroke-linecap="round" stroke-linejoin="round" stroke-width="3.000000"
	d="
M843.000000,715.500000 
	C841.673218,719.793762 842.961243,721.623413 846.992310,720.953796 
	C848.208496,720.751892 849.333313,719.999939 850.500000,719.499939 
"/>
<path fill="none" opacity="1.000000" stroke="#000000" stroke-linecap="round" stroke-linejoin="round" stroke-width="5.000000"
	d="
M742.000000,502.000000 
	C749.473145,498.483643 751.040466,499.417023 750.976990,507.499817 
	C750.956055,510.167633 750.666626,512.833313 750.500000,515.500000 
"/>
<path fill="none" opacity="1.000000" stroke="#000000" stroke-linecap="round" stroke-linejoin="round" stroke-width="4.000000"
	d="
M780.500000,506.500000 
	C776.333313,506.500000 772.166687,506.500000 768.000000,506.500000 
"/>
<path fill="none" opacity="1.000000" stroke="#000000" stroke-linecap="round" stroke-linejoin="round" stroke-width="4.000000"
	d="
M856.000000,498.500000 
	C855.833313,498.833313 855.733032,499.228943 855.488770,499.489471 
	C854.294434,500.763245 849.879822,511.111084 849.462524,513.493408 
	C849.395935,513.873474 848.833313,514.166626 848.500000,514.500000 
"/>
<path fill="none" opacity="1.000000" stroke="#000000" stroke-linecap="round" stroke-linejoin="round" stroke-width="4.000000"
	d="
M678.500000,506.000000 
	C680.893738,508.953033 681.145325,513.572144 685.500000,515.000000 
"/>
<path fill="none" opacity="1.000000" stroke="#000000" stroke-linecap="round" stroke-linejoin="round" stroke-width="4.000000"
	d="
M776.000000,767.500000 
	C776.989075,772.472595 776.396423,777.497925 776.500000,782.500000 
"/>
<path fill="none" opacity="1.000000" stroke="#000000" stroke-linecap="round" stroke-linejoin="round" stroke-width="4.000000"
	d="
M614.500000,491.500000 
	C608.350342,498.326538 604.256836,506.009796 604.500000,515.500000 
"/>
<path fill="none" opacity="1.000000" stroke="#000000" stroke-linecap="round" stroke-linejoin="round" stroke-width="4.000000"
	d="
M804.500000,644.500000 
	C804.500000,647.500000 804.783020,650.534241 804.425049,653.490906 
	C804.018677,656.848083 805.582397,658.100708 808.500000,658.500000 
"/>
<path fill="none" opacity="1.000000" stroke="#000000" stroke-linecap="round" stroke-linejoin="round" stroke-width="4.000000"
	d="
M776.500000,708.500000 
	C776.500000,711.666687 776.537781,714.833862 776.489319,717.999817 
	C776.441528,721.122131 778.006958,721.522217 780.500000,720.500000 
"/>
<path fill="none" opacity="1.000000" stroke="#000000" stroke-linecap="round" stroke-linejoin="round" stroke-width="3.000000"
	d="
M814.500000,711.500000 
	C817.294495,712.707581 815.813171,715.155884 815.916016,717.004700 
	C816.055664,719.513000 816.612427,721.172485 819.500000,721.000000 
"/>
<path fill="none" opacity="1.000000" stroke="#000000" stroke-linecap="round" stroke-linejoin="round" stroke-width="3.000000"
	d="
M797.000000,591.500000 
	C795.973511,592.982483 795.545898,593.986511 797.401001,595.612915 
	C799.806396,597.721924 801.500000,597.045410 803.500000,595.500000 
"/>
<path fill="none" opacity="1.000000" stroke="#000000" stroke-linecap="round" stroke-linejoin="round" stroke-width="5.000000"
	d="
M645.500000,310.500000 
	C641.930054,310.875610 639.381897,313.677826 636.000000,314.500000 
"/>
<path fill="none" opacity="1.000000" stroke="#000000" stroke-linecap="round" stroke-linejoin="round" stroke-width="4.000000"
	d="
M788.500000,772.500000 
	C788.500000,775.833313 788.500000,779.166687 788.500000,782.500000 
"/>
<path fill="none" opacity="1.000000" stroke="#000000" stroke-linecap="round" stroke-linejoin="round" stroke-width="3.000000"
	d="
M844.500000,583.500000 
	C848.011047,585.379395 844.859680,588.192200 845.454102,590.511780 
	C846.033691,592.773560 844.239014,596.130493 848.500000,596.500000 
"/>
<path fill="none" opacity="1.000000" stroke="#000000" stroke-linecap="round" stroke-linejoin="round" stroke-width="3.000000"
	d="
M871.000000,591.000000 
	C868.720581,593.308350 870.185913,595.200928 872.051392,596.421448 
	C874.228271,597.845642 876.333435,596.833618 878.000000,595.000000 
"/>
<path fill="none" opacity="1.000000" stroke="#000000" stroke-linecap="round" stroke-linejoin="round" stroke-width="3.000000"
	d="
M836.500000,650.000000 
	C837.432922,652.691833 833.757385,657.111816 839.500000,658.000000 
"/>
<path fill="none" opacity="1.000000" stroke="#000000" stroke-linecap="round" stroke-linejoin="round" stroke-width="3.000000"
	d="
M153.500000,424.500000 
	C150.331009,424.811218 147.009354,423.672150 144.000000,425.500000 
"/>
<path fill="none" opacity="1.000000" stroke="#000000" stroke-linecap="round" stroke-linejoin="round" stroke-width="5.000000"
	d="
M546.000000,309.500000 
	C545.733459,310.313354 546.520020,311.980103 545.511475,311.882111 
	C542.450928,311.584869 541.045349,314.494690 538.500000,315.000000 
"/>
<path fill="none" opacity="1.000000" stroke="#000000" stroke-linecap="round" stroke-linejoin="round" stroke-width="3.000000"
	d="
M216.500000,425.500000 
	C213.333328,425.500000 210.166672,425.500000 207.000000,425.500000 
"/>
<path fill="none" opacity="1.000000" stroke="#000000" stroke-linecap="round" stroke-linejoin="round" stroke-width="3.000000"
	d="
M851.500000,587.000000 
	C855.133240,588.466675 853.499634,592.896057 856.000000,595.000000 
"/>
<path fill="none" opacity="1.000000" stroke="#000000" stroke-linecap="round" stroke-linejoin="round" stroke-width="3.000000"
	d="
M839.500000,710.500000 
	C835.155823,713.003113 834.293396,716.930664 835.000000,721.500000 
"/>
<path fill="none" opacity="1.000000" stroke="#000000" stroke-linecap="round" stroke-linejoin="round" stroke-width="4.000000"
	d="
M261.500000,310.500000 
	C259.454163,312.684875 256.791809,313.713837 254.000000,314.500000 
"/>
<path fill="none" opacity="1.000000" stroke="#000000" stroke-linecap="round" stroke-linejoin="round" stroke-width="4.000000"
	d="
M784.000000,586.500000 
	C785.067993,589.788269 784.243408,593.171143 784.500000,596.500000 
"/>
<path fill="none" opacity="1.000000" stroke="#000000" stroke-linecap="round" stroke-linejoin="round" stroke-width="4.000000"
	d="
M816.750061,583.500000 
	C816.500061,586.666687 816.250061,589.833313 816.000061,593.000000 
"/>
<path fill="none" opacity="1.000000" stroke="#000000" stroke-linecap="round" stroke-linejoin="round" stroke-width="4.000000"
	d="
M784.000000,710.500000 
	C783.162964,713.799805 783.632568,717.164978 783.500000,720.500000 
"/>
<path fill="none" opacity="1.000000" stroke="#000000" stroke-linecap="round" stroke-linejoin="round" stroke-width="3.000000"
	d="
M777.500000,778.500000 
	C778.474304,778.910522 779.613220,777.752075 780.623596,779.425354 
	C781.676086,781.168274 783.030884,783.169739 785.500000,783.500000 
"/>
<path fill="none" opacity="1.000000" stroke="#000000" stroke-linecap="round" stroke-linejoin="round" stroke-width="5.000000"
	d="
M503.750000,312.000000 
	C498.247833,310.060455 494.852325,310.534271 493.000000,313.500000 
"/>
<path fill="none" opacity="1.000000" stroke="#000000" stroke-linecap="round" stroke-linejoin="round" stroke-width="5.000000"
	d="
M279.500000,313.500000 
	C279.361908,312.588562 279.999969,311.136597 278.497223,311.046143 
	C274.668427,310.815765 270.852417,311.963745 266.990723,311.304413 
	C266.897888,311.288574 266.666656,312.083344 266.500000,312.500000 
"/>
<path fill="none" opacity="1.000000" stroke="#000000" stroke-linecap="round" stroke-linejoin="round" stroke-width="5.000000"
	d="
M304.750000,312.000000 
	C302.005371,311.100861 296.270752,311.367584 294.000000,312.500000 
"/>
<path fill="none" opacity="1.000000" stroke="#000000" stroke-linecap="round" stroke-linejoin="round" stroke-width="4.000000"
	d="
M733.000000,500.000000 
	C733.913513,503.833344 733.423035,507.666656 733.000000,511.500000 
"/>
<path fill="none" opacity="1.000000" stroke="#000000" stroke-linecap="round" stroke-linejoin="round" stroke-width="3.000000"
	d="
M784.500000,773.500000 
	C782.181519,774.275757 780.698181,775.979431 779.500000,778.000000 
"/>
<path fill="none" opacity="1.000000" stroke="#000000" stroke-linecap="round" stroke-linejoin="round" stroke-width="4.000000"
	d="
M771.500000,582.500000 
	C768.166687,582.500000 764.833313,582.500000 761.500000,582.500000 
"/>
<path fill="none" opacity="1.000000" stroke="#000000" stroke-linecap="round" stroke-linejoin="round" stroke-width="3.000000"
	d="
M808.500000,649.000000 
	C806.166687,649.000000 803.833313,649.000000 801.500000,649.000000 
"/>
<path fill="none" opacity="1.000000" stroke="#000000" stroke-linecap="round" stroke-linejoin="round" stroke-width="3.000000"
	d="
M842.500000,587.500000 
	C844.833313,587.333313 847.166687,587.166687 849.500000,587.000000 
"/>
<path fill="none" opacity="1.000000" stroke="#000000" stroke-linecap="round" stroke-linejoin="round" stroke-width="3.000000"
	d="
M839.500000,649.000000 
	C837.500000,649.000000 835.500000,649.000000 833.500000,649.000000 
"/>
<path fill="none" opacity="1.000000" stroke="#000000" stroke-linecap="round" stroke-linejoin="round" stroke-width="10.000000"
	d="
M183.000000,781.500000 
	C172.948380,782.528931 164.511963,786.498657 157.954468,794.462524 
	C152.270233,801.365784 149.512268,809.269470 149.569809,817.999512 
	C149.688660,836.032349 160.599014,848.358582 175.538254,853.386353 
	C179.282455,854.646423 183.499649,854.933350 187.500046,854.936646 
	C286.500000,855.017456 385.500061,855.064514 484.499939,854.951538 
	C507.352844,854.925476 523.815369,835.849365 521.869385,814.511902 
	C520.030334,794.347107 504.571442,781.518860 486.500000,781.513733 
	C385.500000,781.485168 284.500000,781.500000 183.500000,781.500000 
"/>
<path fill="none" opacity="1.000000" stroke="#000000" stroke-linecap="round" stroke-linejoin="round" stroke-width="5.000000"
	d="
M518.000000,311.000000 
	C512.757874,312.011414 510.218384,315.567383 509.551056,320.506897 
	C508.986786,324.683838 511.308380,327.834106 514.554504,329.914978 
	C517.727722,331.949066 521.411560,331.495483 524.458069,329.437927 
	C528.266052,326.866028 529.325989,322.742889 528.396484,318.522797 
	C527.515930,314.525024 524.829529,311.715118 520.497620,311.014679 
	C519.847900,310.909607 519.166687,311.000000 518.500000,311.000000 
"/>
<path fill="none" opacity="1.000000" stroke="#000000" stroke-linecap="round" stroke-linejoin="round" stroke-width="3.000000"
	d="
M775.500000,587.000000 
	C772.368591,588.060181 770.758911,590.419128 771.663025,593.451416 
	C772.133057,595.027954 773.455750,597.098877 776.000671,597.023010 
	C778.117615,596.959961 779.003296,595.465210 780.006348,594.004333 
	C781.262817,592.174561 780.444458,590.504822 779.452454,589.032043 
	C778.694824,587.907288 777.628967,586.857605 776.000000,587.000000 
"/>
<path fill="none" opacity="1.000000" stroke="#000000" stroke-linecap="round" stroke-linejoin="round" stroke-width="4.000000"
	d="
M835.500000,500.000000 
	C831.399170,501.107758 829.627075,503.682678 829.937805,508.004486 
	C830.144043,510.872375 831.431091,512.560791 833.999390,513.501770 
	C836.652527,514.473755 838.776184,513.908325 841.067383,512.084717 
	C843.851990,509.868469 843.460571,506.898132 842.811035,504.552338 
	C842.014404,501.675537 839.442688,499.774353 836.000000,500.000000 
"/>
<path fill="none" opacity="1.000000" stroke="#000000" stroke-linecap="round" stroke-linejoin="round" stroke-width="18.000000"
	d="
M783.000000,182.500000 
	C774.177185,183.174225 766.213135,185.716019 759.981812,192.483231 
	C750.506409,202.773590 748.018982,214.697525 751.524231,227.993607 
	C754.956482,241.012558 763.702332,249.575790 776.539856,251.766296 
	C803.483154,256.363770 819.797302,235.496323 817.222351,213.973404 
	C815.339478,198.235489 807.533997,188.442200 792.968750,183.593872 
	C790.018066,182.611679 786.666687,182.833344 783.500000,182.500000 
"/>
<path fill="none" opacity="1.000000" stroke="#000000" stroke-linecap="round" stroke-linejoin="round" stroke-width="10.000000"
	d="
M299.500000,682.500000 
	C291.317902,685.740173 289.500000,688.376160 289.500000,697.000000 
	C289.500000,711.166687 289.486908,725.333313 289.505310,739.500000 
	C289.515106,747.031494 294.457916,752.362610 302.000549,752.453369 
	C315.665253,752.617859 329.334412,752.601746 342.999542,752.457092 
	C349.842590,752.384766 354.964874,747.569641 355.439453,740.495911 
	C356.523254,724.342102 356.340668,708.160461 355.436096,692.003601 
	C355.141449,686.741516 349.514008,682.524048 343.499969,682.510559 
	C329.000061,682.478027 314.500000,682.500000 300.000000,682.500000 
"/>
<path fill="none" opacity="1.000000" stroke="#000000" stroke-linecap="round" stroke-linejoin="round" stroke-width="5.000000"
	d="
M815.000000,311.000000 
	C807.373108,314.543945 804.815552,322.216766 809.500000,327.500000 
	C812.731384,331.144440 816.302612,331.583649 820.539001,330.112213 
	C824.890869,328.600586 827.006226,323.411438 826.475159,319.503387 
	C825.873596,315.076050 821.943726,311.444977 817.499146,311.009003 
	C816.838806,310.944244 816.166687,311.000000 815.500000,311.000000 
"/>
<path fill="none" opacity="1.000000" stroke="#000000" stroke-linecap="round" stroke-linejoin="round" stroke-width="5.000000"
	d="
M591.000000,311.000000 
	C582.854004,312.946350 581.057312,323.738434 586.491394,328.509766 
	C590.660400,332.170319 597.198792,331.939636 600.424316,327.445679 
	C603.277588,323.470306 603.950195,317.520844 599.046509,313.444031 
	C596.744019,311.529785 594.364929,310.738586 591.500000,311.000000 
"/>
</svg>